<?xml version="1.0" encoding="UTF-8"?>
<svg width="126px" height="23px" viewBox="0 0 126 23" version="1.1" xmlns="http://www.w3.org/2000/svg" xmlns:xlink="http://www.w3.org/1999/xlink">
    <!-- Generator: Sketch 46.2 (44496) - http://www.bohemiancoding.com/sketch -->
    <title>Desktop@svg</title>
    <desc>Created with Sketch.</desc>
    <defs></defs>
    <g id="Page-1" stroke="none" stroke-width="1" fill="none" fill-rule="evenodd">
        <g id="Desktop" fill="#1989FA">
            <path d="M33.1414584,2.14962635 C33.0716396,2.02681885 32.9245644,1.97073784 32.7907046,2.015881 C32.4143819,2.10111088 28.0243876,9.23222927 18.5900956,9.03488932 L18.5874731,9.03488932 C16.9129727,9.07477618 15.241181,8.87901655 13.6211937,8.4533593 L12.80102,5.87745012 C12.6796877,5.46675343 12.398626,5.12192145 12.0208388,4.92025302 C11.5855108,4.69799972 11.3324436,4.7694617 11.2786832,4.83108946 C11.2505658,4.86446802 11.2366758,4.90755078 11.240002,4.9510669 L11.629437,7.7636529 C6.82116059,5.76271759 4.65632167,2.07816438 4.38489729,2.015881 C4.25121096,1.9699864 4.10383452,2.02628751 4.03479917,2.14962635 C3.98979686,2.2635526 3.98839625,2.39007481 4.03086548,2.50496938 C5.35914036,6.37702833 8.28842573,9.52594454 12.1041018,11.181371 L13.1484957,17.9859934 C13.2199576,19.9266122 14.5547887,21.0372231 16.2908557,21.0372231 L21.4833222,21.0372231 C23.2193892,21.0372231 24.5188171,19.8230251 24.6283047,17.9859934 L25.5796013,12.3595102 C25.5889843,12.3191805 25.576544,12.2768835 25.5468206,12.2480557 C25.4878153,12.2133082 25.0354413,12.1995403 24.1208591,12.8590884 C23.5653118,13.2673151 23.1395678,13.8273846 22.8948601,14.4719 C22.8948601,14.4719 21.9055379,16.8124436 21.645259,17.8116 C21.3712121,18.8645168 20.1570141,18.7701083 20.1570141,18.7701083 L17.3726196,18.7701083 C16.8677964,18.802889 16.4219786,18.4501685 16.349861,17.9604245 L14.6124827,12.0251468 C15.9134121,12.3428806 17.24832,12.5003042 18.5874731,12.4939112 L18.5900956,12.4939112 C25.4130752,12.5201357 31.0874183,8.46188229 33.1467033,2.50496938 C33.1887526,2.3899138 33.1868851,2.26339077 33.1414584,2.14962635 L33.1414584,2.14962635 Z" id="Shape"></path>
            <text id="Bi-Studio" font-family="ArialRoundedMTBold, Arial Rounded MT Bold" font-size="17" font-weight="normal">
                <tspan x="36" y="19">Bi-Studio</tspan>
            </text>
        </g>
    </g>
</svg>